<?xml version="1.0" encoding="UTF-8"?>
<svg xmlns="http://www.w3.org/2000/svg" viewBox="0 0 494 494">
  <defs>
    <style>
      .cls-1 {
        fill: #c678dd;
      }

      .cls-2 {
        fill: #282c34;
      }

      .cls-3 {
        fill: #abb2bf;
      }

      .cls-4 {
        fill: #de6a73;
      }

      .cls-5 {
        fill: #98c379;
      }

      .cls-6 {
        fill: #61afef;
      }

      .cls-7 {
        fill: #d19a66;
      }
    </style>
  </defs>
  <g id="Background">
    <circle class="cls-2" cx="247" cy="247" r="247"/>
  </g>
  <g id="Colors">
    <g>
      <path class="cls-4" d="M248.91,143.32c10.31.03,20.63,1.48,30.93,4.34,7.51,2.09,13.94-.21,17.82-7.01,7.4-12.97,6.75-11.93,21.92-39.09.68-1.21.83-3.44.83-4.83,0-1.61-.19-2.69-.83-4.17-2.83-6.5-8.8-9.34-14.72-11.77-13.68-5.61-28.22-7.6-42.81-8.74-4.39-.34-8.77-.54-13.13-.58h0c-4.36.04-8.74.24-13.13.58-14.6,1.14-29.14,3.13-42.81,8.74-5.92,2.43-11.89,5.27-14.72,11.77-.64,1.48-.83,2.56-.83,4.17,0,1.39.16,3.62.83,4.83,15.17,27.17,14.51,26.12,21.92,39.09,3.88,6.8,10.31,9.1,17.82,7.01,10.31-2.86,20.62-4.31,30.93-4.34"/>
      <path class="cls-1" d="M337.13,195.75c5.19,8.91,9.16,18.54,11.91,28.87,2,7.53,7.23,11.92,15.06,11.82,14.94-.18,13.7-.21,44.81-.88,1.39-.03,3.39-1.02,4.59-1.73,1.39-.82,2.22-1.52,3.17-2.83,4.17-5.73,3.6-12.32,2.7-18.66-2.08-14.64-7.73-28.18-14.13-41.35-1.93-3.96-3.97-7.84-6.14-11.62h0c-2.24-3.74-4.63-7.42-7.15-11.03-8.37-12.01-17.44-23.55-29.2-32.5-5.09-3.88-10.56-7.59-17.6-6.74-1.6.19-2.63.57-4.02,1.39-1.2.7-3.04,1.97-3.75,3.16-15.76,26.83-15.18,25.73-22.63,38.69-3.9,6.79-2.63,13.49,2.97,18.92,7.68,7.44,14.15,15.6,19.4,24.48"/>
      <path class="cls-6" d="M335.2,300.63c-5.28,8.86-11.79,16.99-19.5,24.4-5.62,5.4-6.93,12.1-3.06,18.9,7.39,12.98,6.82,11.89,22.45,38.79.7,1.2,2.54,2.47,3.73,3.18,1.39.82,2.41,1.21,4.01,1.41,7.04.88,12.52-2.81,17.63-6.66,11.8-8.9,20.92-20.4,29.35-32.38,2.53-3.6,4.94-7.27,7.19-11h0c2.19-3.77,4.25-7.64,6.19-11.59,6.46-13.14,12.17-26.66,14.31-41.29.93-6.33,1.53-12.92-2.62-18.67-.94-1.31-1.77-2.02-3.16-2.84-1.19-.71-3.19-1.71-4.58-1.75-31.1-.8-29.87-.83-44.8-1.08-7.83-.13-13.08,4.23-15.11,11.76-2.79,10.33-6.81,19.93-12.04,28.82"/>
      <path class="cls-5" d="M248.91,350.68c10.31-.03,20.63-1.48,30.93-4.34,7.51-2.09,13.94.21,17.82,7.01,7.4,12.97,6.75,11.93,21.92,39.09.68,1.21.83,3.44.83,4.83,0,1.61-.19,2.69-.83,4.17-2.83,6.5-8.8,9.34-14.72,11.77-13.68,5.61-28.22,7.6-42.81,8.74-4.39.34-8.77.54-13.13.58h0c-4.36-.04-8.74-.24-13.13-.58-14.6-1.14-29.14-3.13-42.81-8.74-5.92-2.43-11.89-5.27-14.72-11.77-.64-1.48-.83-2.56-.83-4.17,0-1.39.16-3.62.83-4.83,15.17-27.17,14.51-26.12,21.92-39.09,3.88-6.8,10.31-9.1,17.82-7.01,10.31,2.86,20.62,4.31,30.93,4.34"/>
      <path class="cls-7" d="M158.85,300.63c5.28,8.86,11.79,16.99,19.5,24.4,5.62,5.4,6.93,12.1,3.06,18.9-7.39,12.98-6.82,11.89-22.45,38.79-.7,1.2-2.54,2.47-3.73,3.18-1.39.82-2.41,1.21-4.01,1.41-7.04.88-12.52-2.81-17.63-6.66-11.8-8.9-20.92-20.4-29.35-32.38-2.53-3.6-4.94-7.27-7.19-11h0c-2.19-3.77-4.25-7.64-6.19-11.59-6.46-13.14-12.17-26.66-14.31-41.29-.93-6.33-1.53-12.92,2.62-18.67.94-1.31,1.77-2.02,3.16-2.84,1.19-.71,3.19-1.71,4.58-1.75,31.1-.8,29.87-.83,44.8-1.08,7.83-.13,13.08,4.23,15.11,11.76,2.79,10.33,6.81,19.93,12.04,28.82"/>
      <path class="cls-3" d="M156.87,195.75c-5.19,8.91-9.16,18.54-11.91,28.87-2,7.53-7.23,11.92-15.06,11.82-14.94-.18-13.7-.21-44.81-.88-1.39-.03-3.39-1.02-4.59-1.73-1.39-.82-2.22-1.52-3.17-2.83-4.17-5.73-3.6-12.32-2.7-18.66,2.08-14.64,7.73-28.18,14.13-41.35,1.93-3.96,3.97-7.84,6.14-11.62h0c2.24-3.74,4.63-7.42,7.15-11.03,8.37-12.01,17.44-23.55,29.2-32.5,5.09-3.88,10.56-7.59,17.6-6.74,1.6.19,2.63.57,4.02,1.39,1.2.7,3.04,1.97,3.75,3.16,15.76,26.83,15.18,25.73,22.63,38.69,3.9,6.79,2.63,13.49-2.97,18.92-7.68,7.44-14.15,15.6-19.4,24.48"/>
    </g>
  </g>
</svg>